HIERARCHY
ROOT hip
{
	OFFSET 0.000000 0.000000 0.000000 
	CHANNELS 6 Xposition Yposition Zposition Xrotation Zrotation Yrotation
	JOINT abdomen
	{
		OFFSET 0.000000 3.402643 0.000000 
		CHANNELS 3 Xrotation Zrotation Yrotation
		JOINT chest
		{
			OFFSET 0.000000 8.438565 -0.680529 
			CHANNELS 3 Xrotation Zrotation Yrotation
			JOINT neck
			{
				OFFSET 0.000000 10.207942 -0.272212 
				CHANNELS 3 Xrotation Zrotation Yrotation
				JOINT head
				{
					OFFSET 0.000000 3.130431 0.000000 
					CHANNELS 3 Xrotation Zrotation Yrotation
					End Site
					{
						OFFSET 0.000000 3.130435 0.000000 
					}
				}
			}
			JOINT lCollar
			{
				OFFSET 3.470700 6.669187 -0.816635 
				CHANNELS 3 Yrotation Zrotation Xrotation
				JOINT lShldr
				{
					OFFSET 3.198488 0.000000 0.000000 
					CHANNELS 3 Zrotation Yrotation Xrotation
					JOINT lForeArm
					{
						OFFSET 10.139888 0.000000 0.000000 
						CHANNELS 3 Yrotation Zrotation Xrotation
						JOINT lHand
						{
							OFFSET 8.370511 0.000000 0.000000 
							CHANNELS 3 Zrotation Yrotation Xrotation
							End Site
							{
								OFFSET 4.083176 0.000000 0.000000 
							}
						}
					}
				}
			}
			JOINT rCollar
			{
				OFFSET -3.470700 6.669187 -0.816635 
				CHANNELS 3 Yrotation Zrotation Xrotation
				JOINT rShldr
				{
					OFFSET -3.198488 0.000000 0.000000 
					CHANNELS 3 Zrotation Yrotation Xrotation
					JOINT rForeArm
					{
						OFFSET -10.139888 0.000000 0.000000 
						CHANNELS 3 Yrotation Zrotation Xrotation
						JOINT rHand
						{
							OFFSET -8.370511 0.000000 0.000000 
							CHANNELS 3 Zrotation Yrotation Xrotation
							End Site
							{
								OFFSET -4.083176 0.000000 0.000000 
							}
						}
					}
				}
			}
		}
	}
	JOINT lThigh
	{
		OFFSET 5.308129 -1.633274 1.361059 
		CHANNELS 3 Xrotation Zrotation Yrotation
		JOINT lShin
		{
			OFFSET -2.041588 -20.007561 0.000000 
			CHANNELS 3 Xrotation Zrotation Yrotation
			JOINT lFoot
			{
				OFFSET 0.000000 -19.190928 -1.224953 
				CHANNELS 3 Xrotation Yrotation Zrotation
				End Site
				{
					OFFSET 0.000000 -2.449906 4.627600 
				}
			}
		}
	}
	JOINT rThigh
	{
		OFFSET -5.308129 -1.633274 1.361059 
		CHANNELS 3 Xrotation Zrotation Yrotation
		JOINT rShin
		{
			OFFSET 2.041588 -20.007561 0.000000 
			CHANNELS 3 Xrotation Zrotation Yrotation
			JOINT rFoot
			{
				OFFSET 0.000000 -19.190928 -1.224953 
				CHANNELS 3 Xrotation Yrotation Zrotation
				End Site
				{
					OFFSET 0.000000 -2.449906 4.627600 
				}
			}
		}
	}
}
MOTION
Frames: 14
Frame Time: 0.033333
-7.637039 43.425182 -74.128555 3.505859 -6.513672 54.287109 22.714844 5.117188 0.332902 -8.427734 -1.562500 -0.986328 -12.861329 -1.025391 -22.460938 2.382812 5.263671 -23.037109 0.488281 6.767569 0.282053 -75.751953 -30.400391 55.468750 -75.878906 -2.265625 -13.593751 7.587890 -1.386719 -0.224609 -2.636719 1.318359 -0.127177 67.011719 23.349609 5.166016 78.007813 3.417969 -45.117188 -20.351561 15.000000 -5.212315 -21.599009 26.367632 24.605999 50.181602 -0.570378 -3.142188 -21.642076 -5.479952 -9.407479 -41.968796 -20.026371 -12.743510 48.953690 -0.185515 2.742770 -4.190384 -0.115601 6.824058 
-7.790031 43.478882 -74.261177 3.681640 -7.031250 55.371094 22.890625 5.195312 -0.009766 -8.955079 -1.552734 -1.347656 -13.378906 -0.664088 -22.616514 2.382813 5.087890 -23.037107 0.664063 6.943359 0.252726 -76.562500 -32.597656 56.533199 -75.351563 -2.167969 -13.466428 7.587890 0.019531 -0.224609 -2.988281 0.615234 -0.156355 67.167969 23.701174 6.166038 76.503906 3.564453 -44.277340 -21.455078 13.906251 -5.085542 -22.830044 27.950377 26.254595 50.361988 -0.258254 -3.186256 -20.336342 -11.488340 -11.675798 -42.506710 -19.851320 -12.050018 48.593143 0.165986 2.877957 -3.947432 -1.476655 6.609651 
-7.929019 43.469162 -74.457085 3.505859 -7.568360 56.395195 23.251953 5.449219 -0.311573 -9.482422 -1.376953 -1.709219 -14.257813 -0.664063 -22.617300 2.558594 5.263671 -23.027342 0.839844 7.119140 0.234375 -77.871094 -35.302734 58.535152 -73.505859 -2.216797 -13.925781 6.718750 0.527344 0.009766 -3.349609 0.087891 -0.185562 67.402344 23.916016 9.462892 74.374992 3.261719 -42.392578 -23.603516 14.345702 -5.827659 -24.452755 29.334234 24.971409 51.562344 -0.131429 -3.186039 -18.715872 -16.646976 -13.035517 -42.318634 -19.488441 -11.650957 48.066593 0.165864 2.843740 -3.872304 -3.000468 6.544699 
-8.041621 43.373108 -74.736229 3.339844 -8.095703 57.099617 23.613281 5.527344 -0.654297 -9.658203 -1.201172 -1.884766 -15.136717 -0.839844 -22.627094 3.085937 5.615234 -22.998047 1.015625 7.294923 0.203838 -79.912109 -38.164066 60.980289 -70.996094 -2.246094 -12.783204 5.126953 1.240234 -0.078125 -3.876953 -0.449219 -0.039063 68.046875 24.072268 13.691407 72.402344 3.476563 -42.626949 -24.414063 14.492187 -6.159666 -26.200165 29.694237 21.561167 53.345284 -0.236743 -3.127885 -18.477270 -16.577909 -12.583248 -42.829311 -19.656334 -11.727698 48.056839 0.165860 2.843285 -3.362973 -3.711258 6.465294 
-8.123210 43.181923 -75.104927 2.978516 -8.437500 57.479034 24.140625 5.527344 -0.653356 -9.833984 -1.376953 -1.885000 -16.367188 -0.488281 -22.607504 3.437500 5.625000 -22.792009 1.171875 7.656250 0.350261 -82.675781 -40.810547 62.825649 -67.490234 -2.119140 -10.614875 1.787109 1.601562 -0.058594 -4.052734 -0.791016 -0.068359 68.876953 24.082033 17.314453 71.113281 3.427734 -44.599609 -21.699219 13.056641 -4.892579 -27.206631 29.579197 17.571373 54.394390 -0.229190 -3.040469 -17.586571 -11.244474 -10.767616 -43.587467 -20.044382 -12.376062 48.251625 0.165861 2.861998 -2.927881 -3.247009 6.469778 
-8.198895 42.905567 -75.552673 2.636719 -8.789062 57.480469 25.000000 5.019531 -0.780396 -9.833984 -0.849609 -1.884915 -17.597658 -0.488281 -22.607420 3.613281 5.800781 -22.606436 1.162109 7.832032 0.340466 -85.322266 -42.509766 64.192627 -63.271484 -2.304688 -11.650391 -1.748047 0.527344 -0.205078 -4.052734 -0.791016 -0.068359 69.775391 23.662111 20.732422 70.058594 3.525390 -47.549427 -22.021484 12.675782 -4.912109 -27.535069 29.553200 15.360774 54.379875 0.065943 -3.543591 -17.442795 -9.288581 -10.214185 -44.281399 -20.572073 -12.970066 48.778187 0.156131 2.892032 -2.461184 -2.202648 6.693400 
-8.298536 42.559895 -76.026695 2.275390 -8.964844 57.480469 25.869143 4.541016 -1.073446 -9.658203 -0.498047 -2.060547 -19.189453 -0.322266 -22.431713 4.140625 5.976563 -22.225544 1.347656 7.832032 0.320935 -87.714844 -43.339848 63.642574 -59.375000 -2.373047 -15.956627 -6.337891 1.171875 -0.292969 -3.876953 -0.625000 -0.058594 70.937500 23.818359 24.130859 68.408203 3.525390 -49.072861 -25.996094 14.082032 -6.347655 -28.093931 30.309153 15.127271 54.919220 -0.101830 -3.322778 -20.250359 -10.664980 -11.391643 -45.172535 -21.101034 -13.709928 49.487576 -0.029276 2.659869 -2.083768 -1.464912 6.797453 
-8.474325 42.170822 -76.472252 1.933594 -9.316406 58.007813 26.914063 3.906250 -1.415350 -9.833984 -0.322266 -2.236385 -20.947266 0.205078 -22.402308 4.667969 6.152343 -22.010670 1.337891 8.007812 0.312500 -88.837891 -42.558594 60.781254 -55.976563 -2.617188 -18.115238 -10.263672 2.597656 -0.742188 -3.701172 -0.449219 -0.039063 72.089836 24.033203 28.330076 65.908203 3.496094 -46.182240 -28.740238 13.476563 -7.041016 -29.858755 30.861292 15.523051 56.499641 0.083395 -3.304685 -22.687817 -11.685193 -12.389463 -46.470394 -21.715595 -14.095230 50.710144 -0.009705 2.907952 -1.665393 -1.006670 6.585709 
-8.721748 41.777351 -76.822769 1.572266 -9.667968 58.505863 28.310549 2.880860 -1.659666 -10.000001 0.029297 -2.060547 -23.212889 0.751953 -22.734203 5.195312 6.328125 -22.158203 0.986328 8.007812 0.369733 -88.476563 -40.869137 55.595699 -52.714844 -2.568359 -20.722218 -10.986328 6.269531 -1.571198 -3.701172 -0.449219 -0.039063 73.154297 24.785158 33.119328 63.603516 3.359375 -43.212891 -29.824219 8.916017 -4.892578 -31.938757 31.681740 15.352025 58.424782 0.268717 -3.461279 -24.813505 -12.763154 -13.641788 -47.626656 -22.490255 -15.228348 51.932941 -0.189538 3.045145 -2.280731 -0.355328 6.675981 
-9.014651 41.416748 -77.042542 1.054688 -10.019501 58.855801 29.707033 1.816406 -1.737972 -10.175780 -0.146484 -1.709010 -25.615234 1.318359 -23.759766 6.259766 6.513672 -22.616077 0.478516 7.646473 0.272139 -86.972656 -38.339848 49.140625 -49.462887 -2.900391 -24.843256 -9.521484 8.564453 -1.863779 -3.876953 -0.800781 -0.068223 74.394531 26.181641 38.671875 62.089840 3.437500 -42.792973 -27.832031 0.781250 -0.566406 -33.739777 32.645638 14.352668 59.820599 0.094061 -3.621524 -26.641523 -13.499850 -14.232938 -48.852383 -23.013340 -16.885731 53.511337 -0.517599 2.967134 -3.352728 0.147649 7.093610 
-9.315310 41.109726 -77.110931 0.703125 -10.380858 59.023434 31.103518 0.576172 -1.142480 -10.537108 -0.673828 -0.839959 -27.851561 1.542969 -24.804422 7.314454 6.689453 -23.426596 -0.205078 6.943363 0.184366 -84.873047 -35.644531 41.918133 -46.279301 -3.056641 -30.283201 -8.701172 10.000000 -1.912367 -4.218750 -1.855469 0.029297 76.289063 28.281246 46.249996 60.234371 3.398438 -43.759766 -26.181641 -4.335938 1.776605 -35.329395 33.541134 13.227313 60.879955 0.258306 -3.416262 -27.728584 -14.065329 -14.831503 -49.922176 -23.213444 -17.501055 55.471222 -0.194554 3.036274 -4.824708 -0.081730 6.640234 
-9.610413 40.872829 -77.022766 0.527344 -10.722641 59.021660 32.148438 -0.820313 -0.576173 -10.888672 -1.376953 0.390625 -30.078125 1.425781 -26.034914 8.554688 6.513672 -24.228514 -0.732422 6.230469 0.244141 -82.568359 -33.095707 34.287113 -43.291016 -3.193359 -34.599606 -10.810547 12.353516 -2.869004 -4.208984 -3.447265 0.097656 78.798828 31.142576 55.019531 58.417965 3.398438 -47.001949 -24.189455 -7.236329 2.783203 -36.664124 33.976692 11.821553 61.747589 0.258085 -3.476628 -27.425301 -14.148946 -14.862818 -51.058609 -23.119751 -18.645769 57.207565 -0.370960 3.014074 -6.445571 -1.408411 6.662735 
-9.856333 40.680721 -76.772896 0.527344 -11.074203 59.021599 32.841797 -1.962891 0.419922 -11.591798 -2.246094 1.601563 -31.777342 0.957031 -27.284994 9.619140 6.337891 -25.214844 -1.416016 5.185547 0.126953 -79.951172 -30.341797 26.933594 -41.630856 -3.144531 -38.495556 -13.125001 14.101563 -3.798828 -4.355469 -5.751953 0.263672 81.777344 35.107422 64.892578 56.982422 3.544922 -50.498047 -20.107424 -9.619140 2.978516 -37.702797 34.655262 10.968680 62.274071 0.424019 -3.395984 -27.176437 -14.240189 -14.851671 -51.844887 -23.710346 -20.533190 59.304287 -0.546882 3.011829 -8.103416 -4.388289 6.464086 
-10.041378 40.526463 -76.357101 0.703125 -11.425780 58.886723 33.359379 -2.890625 1.278804 -12.128906 -3.476563 2.998047 -33.144527 0.644531 -28.183483 10.673828 6.152344 -26.025389 -1.943359 4.472656 0.145723 -77.382813 -27.314453 20.195314 -42.412106 -3.359375 -43.056072 -13.349610 15.595704 -4.160157 -4.326172 -7.695313 0.294276 84.726563 40.722656 75.104027 56.406250 3.544922 -55.673828 -14.072266 -11.923828 2.410092 -38.082428 35.220264 10.023433 62.124840 0.258334 -3.320525 -27.134380 -14.074098 -14.525321 -52.216099 -24.267130 -23.147810 61.437840 -0.556606 2.924960 -9.708439 -8.544877 5.412633 
